<?xml version="1.0" encoding="utf-8"?>
<!-- Generator: Adobe Illustrator 28.0.0, SVG Export Plug-In . SVG Version: 6.00 Build 0)  -->
<svg version="1.1" id="Layer_1" xmlns="http://www.w3.org/2000/svg" xmlns:xlink="http://www.w3.org/1999/xlink" x="0px" y="0px"
	 viewBox="0 0 2451 1156.2" style="enable-background:new 0 0 2451 1156.2;" xml:space="preserve">
<style type="text/css">
	.st0{fill:#FFFFFF;}
	.st1{fill:#FF0044;}
</style>
<g>
	<g>
		<path class="st0" d="M2442.3,171.5l-148.7,132.6c-4.1,3.8-9.7,6-15.6,6c-6.1,0-11.9-2.5-16.3-6.8c-7.9-7.8-8.8-20.6-2.3-29.8
			l57.7-80l-95.3-9.5c-10.4-1-19-7.8-22.2-17.8c-3.3-10.1-0.6-20.6,7.3-27.7L2355.6,6c4.2-3.8,9.7-6,15.5-6c6.2,0,11.9,2.5,16.3,6.9
			c7.8,7.7,8.8,20.6,2.3,29.7l-57.7,80l95.3,9.4c10.5,1,19,7.9,22.3,17.9C2452.9,153.9,2450.1,164.5,2442.3,171.5z"/>
	</g>
	<g>
		<g>
			<g>
				<g>
					<rect y="312.6" width="1434.5" height="843.6"/>
				</g>
			</g>
		</g>
		<g>
			<g>
				<g>
					<rect x="1434.5" y="312.6" class="st1" width="763.7" height="843.6"/>
				</g>
			</g>
		</g>
		<path class="st0" d="M1720.4,533.1h-62.2v505.2h-108.8V533.1h-62.2v-99.3h233.2V533.1z M2024.8,1038.3h-166.7l-67.4-604.5h114
			l33.2,496.6h11.1l34.3-496.6h108.8L2024.8,1038.3z"/>
		<g>
			<path class="st0" d="M290.6,533.6H194v150.1h87.1v96.6H194v257.9H85.3V434.4h205.3V533.6z"/>
			<path class="st0" d="M565.8,1038.1l-12.1-145.7h-64.7L477,1038.1H367.4l73.3-603.7h167.3l72.4,603.7H565.8z M496.8,802.7H546
				l-17.2-210.4v-50h-14.7v50L496.8,802.7z"/>
			<path class="st0" d="M898,1048.5c-42,0-75.9-12.1-101.8-36.2c-25.9-24.1-38.8-55.8-38.8-94.9v-89.7h108.7v89.7
				c0,9.8,2.9,17.5,8.6,23.3c5.7,5.8,13.5,8.6,23.3,8.6c9.8,0,17.7-2.9,23.7-8.6c6-5.7,9.1-13.5,9.1-23.3v-69.9
				c0-12.6-5.9-24.7-17.7-36.2c-11.8-11.5-26-22.4-42.7-32.8c-16.7-10.4-33.5-21.7-50.4-34.1c-17-12.4-31.3-28.6-43.1-48.7
				c-11.8-20.1-17.7-43.1-17.7-69v-72.4c0-39.1,12.6-70.6,37.9-94.4C822.4,436,856,424.1,898,424.1c42,0,75.7,11.9,101.3,35.8
				c25.6,23.9,38.4,55.3,38.4,94.4v80.2H929v-81.1c0-9.2-2.9-16.5-8.6-22c-5.8-5.5-13.2-8.2-22.4-8.2c-9.2,0-16.5,2.7-22,8.2
				c-5.5,5.5-8.2,12.8-8.2,22v60.4c0,13.2,5.9,25.6,17.7,37.1c11.8,11.5,26.2,22.4,43.1,32.8c17,10.3,33.8,21.6,50.4,33.6
				c16.7,12.1,30.9,28.2,42.7,48.3c11.8,20.1,17.7,43.1,17.7,69v82.8c0,39.1-12.9,70.7-38.8,94.9
				C974.7,1036.4,940.5,1048.5,898,1048.5z"/>
			<path class="st0" d="M1348.6,434.4v99.2h-62.1v504.5h-108.7V533.6h-62.1v-99.2H1348.6z"/>
		</g>
	</g>
</g>
</svg>
